<?xml version="1.0" encoding="UTF-8" standalone="no"?>
<!DOCTYPE svg PUBLIC "-//W3C//DTD SVG 1.1//EN"
 "http://www.w3.org/Graphics/SVG/1.1/DTD/svg11.dtd">
<!-- Generated by graphviz version 2.38.0 (20140413.2041)
 -->
<!-- Title: %3 Pages: 1 -->
<svg width="1708pt" height="2329pt"
 viewBox="0.00 0.00 1708.00 2329.00" xmlns="http://www.w3.org/2000/svg" xmlns:xlink="http://www.w3.org/1999/xlink">
<g id="graph0" class="graph" transform="scale(1 1) rotate(0) translate(4 2325)">
<title>%3</title>
<polygon fill="white" stroke="none" points="-4,4 -4,-2325 1704,-2325 1704,4 -4,4"/>
<g id="clust1" class="cluster"><title>cluster_9d6322c1f4</title>
<polygon fill="lightblue" stroke="black" points="8,-2002 8,-2217 194,-2217 194,-2002 8,-2002"/>
<text text-anchor="middle" x="101" y="-2201.8" font-family="Roboto" font-size="14.00">Login</text>
</g>
<g id="clust2" class="cluster"><title>cluster_8a9d39f9f6</title>
<polygon fill="white" stroke="black" points="16,-2022 16,-2186 186,-2186 186,-2022 16,-2022"/>
</g>
<g id="clust3" class="cluster"><title>cluster_32d7e82082</title>
<polygon fill="lightblue" stroke="black" points="306,-2002 306,-2313 1394,-2313 1394,-2002 306,-2002"/>
<text text-anchor="middle" x="850" y="-2297.8" font-family="Roboto" font-size="14.00">Control</text>
</g>
<g id="clust4" class="cluster"><title>cluster_3484e0557d</title>
<polygon fill="white" stroke="black" points="314,-2064 314,-2282 484,-2282 484,-2064 314,-2064"/>
</g>
<g id="clust5" class="cluster"><title>cluster_ccb596a252</title>
<polygon fill="white" stroke="black" points="614,-2014 614,-2282 784,-2282 784,-2014 614,-2014"/>
</g>
<g id="clust6" class="cluster"><title>cluster_b5348d5536</title>
<polygon fill="white" stroke="black" points="914,-2010 914,-2282 1088,-2282 1088,-2010 914,-2010"/>
</g>
<g id="clust7" class="cluster"><title>cluster_80b9b652c9</title>
<polygon fill="white" stroke="black" points="1216,-2176 1216,-2282 1386,-2282 1386,-2176 1216,-2176"/>
</g>
<g id="clust8" class="cluster"><title>cluster_512fd3c604</title>
<polygon fill="lightblue" stroke="black" points="604,-1265 604,-1994 794,-1994 794,-1265 604,-1265"/>
<text text-anchor="middle" x="699" y="-1978.8" font-family="Roboto" font-size="14.00">Box</text>
</g>
<g id="clust9" class="cluster"><title>cluster_156e7339c3</title>
<polygon fill="white" stroke="black" points="612,-1285 612,-1963 786,-1963 786,-1285 612,-1285"/>
</g>
<g id="clust10" class="cluster"><title>cluster_3333dd4418</title>
<polygon fill="lightblue" stroke="black" points="908,-1580 908,-1845 1094,-1845 1094,-1580 908,-1580"/>
<text text-anchor="middle" x="1001" y="-1829.8" font-family="Roboto" font-size="14.00">Box Status</text>
</g>
<g id="clust11" class="cluster"><title>cluster_736a0d8925</title>
<polygon fill="white" stroke="black" points="916,-1600 916,-1814 1086,-1814 1086,-1600 916,-1600"/>
</g>
<g id="clust12" class="cluster"><title>cluster_e5716be7dc</title>
<polygon fill="lightblue" stroke="black" points="908,-659 908,-1572 1094,-1572 1094,-659 908,-659"/>
<text text-anchor="middle" x="1001" y="-1556.8" font-family="Roboto" font-size="14.00">Nest</text>
</g>
<g id="clust13" class="cluster"><title>cluster_5c5e00c7ef</title>
<polygon fill="white" stroke="black" points="916,-679 916,-1541 1086,-1541 1086,-679 916,-679"/>
</g>
<g id="clust14" class="cluster"><title>cluster_59f21c6987</title>
<polygon fill="lightblue" stroke="black" points="1208,-1202 1208,-1652 1394,-1652 1394,-1202 1208,-1202"/>
<text text-anchor="middle" x="1301" y="-1636.8" font-family="Roboto" font-size="14.00">Nest</text>
<text text-anchor="middle" x="1301" y="-1621.8" font-family="Roboto" font-size="14.00">Measurement</text>
</g>
<g id="clust15" class="cluster"><title>cluster_26c06e4177</title>
<polygon fill="white" stroke="black" points="1216,-1222 1216,-1606 1386,-1606 1386,-1222 1216,-1222"/>
</g>
<g id="clust16" class="cluster"><title>cluster_37c50c935c</title>
<polygon fill="lightblue" stroke="black" points="1208,-659 1208,-1194 1394,-1194 1394,-659 1208,-659"/>
<text text-anchor="middle" x="1301" y="-1178.8" font-family="Roboto" font-size="14.00">Egg</text>
</g>
<g id="clust17" class="cluster"><title>cluster_93be3e8de9</title>
<polygon fill="white" stroke="black" points="1216,-679 1216,-1163 1386,-1163 1386,-679 1216,-679"/>
</g>
<g id="clust18" class="cluster"><title>cluster_556903d5e9</title>
<polygon fill="lightblue" stroke="black" points="1208,-8 1208,-651 1394,-651 1394,-8 1208,-8"/>
<text text-anchor="middle" x="1301" y="-635.8" font-family="Roboto" font-size="14.00">Chick</text>
</g>
<g id="clust19" class="cluster"><title>cluster_4332e9fcd4</title>
<polygon fill="white" stroke="black" points="1216,-28 1216,-620 1386,-620 1386,-28 1216,-28"/>
</g>
<g id="clust20" class="cluster"><title>cluster_b28b9160d5</title>
<polygon fill="lightblue" stroke="black" points="1506,-8 1506,-790 1692,-790 1692,-8 1506,-8"/>
<text text-anchor="middle" x="1599" y="-774.8" font-family="Roboto" font-size="14.00">Chick</text>
<text text-anchor="middle" x="1599" y="-759.8" font-family="Roboto" font-size="14.00">Measurement</text>
</g>
<g id="clust21" class="cluster"><title>cluster_ef24d48e81</title>
<polygon fill="white" stroke="black" points="1514,-28 1514,-744 1684,-744 1684,-28 1514,-28"/>
</g>
<!-- _9d6322c1f4 -->
<g id="node1" class="node"><title>_9d6322c1f4</title>
</g>
<!-- struct_Label_8a9d39f9f6 -->
<g id="node2" class="node"><title>struct_Label_8a9d39f9f6</title>
<polyline fill="none" stroke="black" stroke-width="3" points="28.5,-2146.5 73.5,-2146.5 "/>
<text text-anchor="start" x="35" y="-2156.4" font-family="Roboto" font-size="12.00">Login</text>
<polygon fill="none" stroke="black" points="26,-2144.5 26,-2175.5 176,-2175.5 176,-2144.5 26,-2144.5"/>
</g>
<!-- struct_Elems_da5a5d8e0c -->
<g id="node3" class="node"><title>struct_Elems_da5a5d8e0c</title>
<image xlink:href="Login_Login_User.svg" width="150px" height="90px" preserveAspectRatio="xMinYMin meet" x="26" y="-2122"/>
</g>
<!-- _32d7e82082 -->
<g id="node4" class="node"><title>_32d7e82082</title>
</g>
<!-- struct_Label_3484e0557d -->
<g id="node5" class="node"><title>struct_Label_3484e0557d</title>
<polyline fill="none" stroke="black" stroke-width="3" points="326.5,-2242.5 382.5,-2242.5 "/>
<text text-anchor="start" x="333" y="-2252.4" font-family="Roboto" font-size="12.00">Control</text>
<polyline fill="none" stroke="black" points="384,-2241 408,-2241 "/>
<text text-anchor="start" x="390" y="-2252.4" font-family="Roboto" font-size="12.00">...</text>
<polygon fill="none" stroke="black" points="324,-2240.5 324,-2271.5 474,-2271.5 474,-2240.5 324,-2240.5"/>
</g>
<!-- struct_Elems_1022bcdc5e -->
<g id="node6" class="node"><title>struct_Elems_1022bcdc5e</title>
<image xlink:href="Control_Control_Add_New_Box.svg" width="150px" height="30px" preserveAspectRatio="xMinYMin meet" x="324" y="-2217"/>
</g>
<!-- struct_Elems_0ea67b7793 -->
<g id="node7" class="node"><title>struct_Elems_0ea67b7793</title>
<image xlink:href="Control_Control_Existing_Boxes.svg" width="150px" height="90px" preserveAspectRatio="xMinYMin meet" x="324" y="-2164"/>
</g>
<!-- struct_Label_ccb596a252 -->
<g id="node8" class="node"><title>struct_Label_ccb596a252</title>
<polyline fill="none" stroke="black" points="625,-2241 649,-2241 "/>
<text text-anchor="start" x="631" y="-2252.4" font-family="Roboto" font-size="12.00">...</text>
<polyline fill="none" stroke="black" stroke-width="3" points="650.5,-2242.5 712.5,-2242.5 "/>
<text text-anchor="start" x="657" y="-2252.4" font-family="Roboto" font-size="12.00">Defaults</text>
<polyline fill="none" stroke="black" points="714,-2241 738,-2241 "/>
<text text-anchor="start" x="720" y="-2252.4" font-family="Roboto" font-size="12.00">...</text>
<polygon fill="none" stroke="black" points="624,-2240.5 624,-2271.5 774,-2271.5 774,-2240.5 624,-2240.5"/>
</g>
<!-- struct_Elems_7bd6c78a41 -->
<g id="node9" class="node"><title>struct_Elems_7bd6c78a41</title>
<image xlink:href="Control_Defaults_Next_Chick_Chick_ID.svg" width="150px" height="30px" preserveAspectRatio="xMinYMin meet" x="624" y="-2217"/>
</g>
<!-- struct_Elems_795b87335b -->
<g id="node10" class="node"><title>struct_Elems_795b87335b</title>
<image xlink:href="Control_Defaults_Next_Egg_ID.svg" width="150px" height="30px" preserveAspectRatio="xMinYMin meet" x="624" y="-2163"/>
</g>
<!-- struct_Elems_08c812c224 -->
<g id="node11" class="node"><title>struct_Elems_08c812c224</title>
<image xlink:href="Control_Defaults_Next_Nest_Nest_ID.svg" width="150px" height="30px" preserveAspectRatio="xMinYMin meet" x="624" y="-2109"/>
</g>
<!-- struct_Elems_e6233c5a44 -->
<g id="node12" class="node"><title>struct_Elems_e6233c5a44</title>
<image xlink:href="Control_Defaults_Next_Box_Box_ID.svg" width="150px" height="30px" preserveAspectRatio="xMinYMin meet" x="624" y="-2055"/>
</g>
<!-- struct_Label_b5348d5536 -->
<g id="node13" class="node"><title>struct_Label_b5348d5536</title>
<polyline fill="none" stroke="black" points="927,-2241 951,-2241 "/>
<text text-anchor="start" x="933" y="-2252.4" font-family="Roboto" font-size="12.00">...</text>
<polyline fill="none" stroke="black" stroke-width="3" points="952.5,-2242.5 1006.5,-2242.5 "/>
<text text-anchor="start" x="959" y="-2252.4" font-family="Roboto" font-size="12.00">Search</text>
<polyline fill="none" stroke="black" points="1008,-2241 1032,-2241 "/>
<text text-anchor="start" x="1014" y="-2252.4" font-family="Roboto" font-size="12.00">...</text>
<polygon fill="none" stroke="black" points="926,-2240.5 926,-2271.5 1076,-2271.5 1076,-2240.5 926,-2240.5"/>
</g>
<!-- struct_Elems_98a8f05303 -->
<g id="node14" class="node"><title>struct_Elems_98a8f05303</title>
<image xlink:href="Control_Search_Search_Term.svg" width="75px" height="30px" preserveAspectRatio="xMinYMin meet" x="924" y="-2217"/>
<image xlink:href="Control_Search_Search_Button.svg" width="75px" height="30px" preserveAspectRatio="xMinYMin meet" x="1003" y="-2217"/>
</g>
<!-- struct_Elems_18e4ee8dff -->
<g id="node15" class="node"><title>struct_Elems_18e4ee8dff</title>
<image xlink:href="Control_Search_Entity_Types.svg" width="150px" height="30px" preserveAspectRatio="xMinYMin meet" x="926" y="-2163"/>
</g>
<!-- struct_Elems_89e10496a5 -->
<g id="node16" class="node"><title>struct_Elems_89e10496a5</title>
<image xlink:href="Control_Search_Entity_List.svg" width="150px" height="90px" preserveAspectRatio="xMinYMin meet" x="926" y="-2110"/>
</g>
<!-- struct_Label_80b9b652c9 -->
<g id="node17" class="node"><title>struct_Label_80b9b652c9</title>
<polyline fill="none" stroke="black" points="1227,-2241 1251,-2241 "/>
<text text-anchor="start" x="1233" y="-2252.4" font-family="Roboto" font-size="12.00">...</text>
<polyline fill="none" stroke="black" stroke-width="3" points="1252.5,-2242.5 1302.5,-2242.5 "/>
<text text-anchor="start" x="1259" y="-2252.4" font-family="Roboto" font-size="12.00">Revisit</text>
<polygon fill="none" stroke="black" points="1226,-2240.5 1226,-2271.5 1376,-2271.5 1376,-2240.5 1226,-2240.5"/>
</g>
<!-- struct_Elems_731d2dfbe5 -->
<g id="node18" class="node"><title>struct_Elems_731d2dfbe5</title>
<image xlink:href="Control_Revisit_Revisit_Table.svg" width="150px" height="30px" preserveAspectRatio="xMinYMin meet" x="1226" y="-2217"/>
</g>
<!-- _512fd3c604 -->
<g id="node19" class="node"><title>_512fd3c604</title>
</g>
<!-- struct_Label_156e7339c3 -->
<g id="node20" class="node"><title>struct_Label_156e7339c3</title>
<polyline fill="none" stroke="black" stroke-width="3" points="626.5,-1923.5 663.5,-1923.5 "/>
<text text-anchor="start" x="633" y="-1933.4" font-family="Roboto" font-size="12.00">Box</text>
<polygon fill="none" stroke="black" points="624,-1921.5 624,-1952.5 774,-1952.5 774,-1921.5 624,-1921.5"/>
</g>
<!-- struct_Elems_39f29d77b7 -->
<g id="node21" class="node"><title>struct_Elems_39f29d77b7</title>
<image xlink:href="Box_Box_Box_Box_ID.svg" width="150px" height="30px" preserveAspectRatio="xMinYMin meet" x="624" y="-1898"/>
</g>
<!-- struct_Elems_70cef96098 -->
<g id="node22" class="node"><title>struct_Elems_70cef96098</title>
<image xlink:href="Box_Box_Box_Location_Name.svg" width="150px" height="30px" preserveAspectRatio="xMinYMin meet" x="624" y="-1844"/>
</g>
<!-- struct_Elems_a51fa8921e -->
<g id="node23" class="node"><title>struct_Elems_a51fa8921e</title>
<image xlink:href="Box_Box_Latitude.svg" width="75px" height="30px" preserveAspectRatio="xMinYMin meet" x="622" y="-1791"/>
<image xlink:href="Box_Box_Northing.svg" width="75px" height="30px" preserveAspectRatio="xMinYMin meet" x="701" y="-1791"/>
<image xlink:href="Box_Box_Longitude.svg" width="75px" height="30px" preserveAspectRatio="xMinYMin meet" x="622" y="-1757"/>
<image xlink:href="Box_Box_Easting.svg" width="75px" height="30px" preserveAspectRatio="xMinYMin meet" x="701" y="-1757"/>
</g>
<!-- struct_Elems_4cde904509 -->
<g id="node24" class="node"><title>struct_Elems_4cde904509</title>
<image xlink:href="Box_Box_Take_From_GPS.svg" width="150px" height="30px" preserveAspectRatio="xMinYMin meet" x="624" y="-1704"/>
</g>
<!-- struct_Elems_0049681a59 -->
<g id="node25" class="node"><title>struct_Elems_0049681a59</title>
<image xlink:href="Box_Box_Height_m.svg" width="150px" height="30px" preserveAspectRatio="xMinYMin meet" x="624" y="-1650"/>
</g>
<!-- struct_Elems_45f9f4b26d -->
<g id="node26" class="node"><title>struct_Elems_45f9f4b26d</title>
<image xlink:href="Box_Box_Orientation_degrees.svg" width="150px" height="30px" preserveAspectRatio="xMinYMin meet" x="624" y="-1596"/>
</g>
<!-- struct_Elems_9e9d6cc0b1 -->
<g id="node27" class="node"><title>struct_Elems_9e9d6cc0b1</title>
<image xlink:href="Box_Box_Comments.svg" width="150px" height="30px" preserveAspectRatio="xMinYMin meet" x="624" y="-1542"/>
</g>
<!-- struct_Elems_8f67367d25 -->
<g id="node28" class="node"><title>struct_Elems_8f67367d25</title>
<image xlink:href="Box_Box_Add_Box_Status.svg" width="150px" height="30px" preserveAspectRatio="xMinYMin meet" x="624" y="-1488"/>
</g>
<!-- struct_Elems_f98ec86556 -->
<g id="node29" class="node"><title>struct_Elems_f98ec86556</title>
<image xlink:href="Box_Box_Box_Statuses.svg" width="150px" height="30px" preserveAspectRatio="xMinYMin meet" x="624" y="-1434"/>
</g>
<!-- struct_Elems_0be7f586a5 -->
<g id="node30" class="node"><title>struct_Elems_0be7f586a5</title>
<image xlink:href="Box_Box_Add_New_Nest.svg" width="150px" height="30px" preserveAspectRatio="xMinYMin meet" x="624" y="-1380"/>
</g>
<!-- struct_Elems_2ba648d4f9 -->
<g id="node31" class="node"><title>struct_Elems_2ba648d4f9</title>
<image xlink:href="Box_Box_Existing_Nests.svg" width="150px" height="30px" preserveAspectRatio="xMinYMin meet" x="624" y="-1326"/>
</g>
<!-- _3333dd4418 -->
<g id="node32" class="node"><title>_3333dd4418</title>
</g>
<!-- struct_Label_736a0d8925 -->
<g id="node33" class="node"><title>struct_Label_736a0d8925</title>
<polyline fill="none" stroke="black" stroke-width="3" points="928.5,-1774.5 1006.5,-1774.5 "/>
<text text-anchor="start" x="935" y="-1784.4" font-family="Roboto" font-size="12.00">Box Status</text>
<polygon fill="none" stroke="black" points="926,-1772.5 926,-1803.5 1076,-1803.5 1076,-1772.5 926,-1772.5"/>
</g>
<!-- struct_Elems_b2d2429482 -->
<g id="node34" class="node"><title>struct_Elems_b2d2429482</title>
<image xlink:href="Box_Status_Box_Status_Box_Status_Box_ID.svg" width="150px" height="30px" preserveAspectRatio="xMinYMin meet" x="926" y="-1749"/>
</g>
<!-- struct_Elems_f15becc879 -->
<g id="node35" class="node"><title>struct_Elems_f15becc879</title>
<image xlink:href="Box_Status_Box_Status_Timestamp.svg" width="150px" height="30px" preserveAspectRatio="xMinYMin meet" x="926" y="-1695"/>
</g>
<!-- struct_Elems_3d10f79c0f -->
<g id="node36" class="node"><title>struct_Elems_3d10f79c0f</title>
<image xlink:href="Box_Status_Box_Status_Box_Status.svg" width="150px" height="30px" preserveAspectRatio="xMinYMin meet" x="926" y="-1641"/>
</g>
<!-- _e5716be7dc -->
<g id="node37" class="node"><title>_e5716be7dc</title>
</g>
<!-- struct_Label_5c5e00c7ef -->
<g id="node38" class="node"><title>struct_Label_5c5e00c7ef</title>
<polyline fill="none" stroke="black" stroke-width="3" points="928.5,-1501.5 969.5,-1501.5 "/>
<text text-anchor="start" x="935" y="-1511.4" font-family="Roboto" font-size="12.00">Nest</text>
<polygon fill="none" stroke="black" points="926,-1499.5 926,-1530.5 1076,-1530.5 1076,-1499.5 926,-1499.5"/>
</g>
<!-- struct_Elems_fef273b36e -->
<g id="node39" class="node"><title>struct_Elems_fef273b36e</title>
<image xlink:href="Nest_Nest_Nest_Box_ID.svg" width="150px" height="30px" preserveAspectRatio="xMinYMin meet" x="926" y="-1476"/>
</g>
<!-- struct_Elems_b339b8b247 -->
<g id="node40" class="node"><title>struct_Elems_b339b8b247</title>
<image xlink:href="Nest_Nest_Nest_Location_Name.svg" width="150px" height="30px" preserveAspectRatio="xMinYMin meet" x="926" y="-1422"/>
</g>
<!-- struct_Elems_12b1b5fab4 -->
<g id="node41" class="node"><title>struct_Elems_12b1b5fab4</title>
<image xlink:href="Nest_Nest_Nest_Nest_ID.svg" width="150px" height="30px" preserveAspectRatio="xMinYMin meet" x="926" y="-1368"/>
</g>
<!-- struct_Elems_7ba4378c97 -->
<g id="node42" class="node"><title>struct_Elems_7ba4378c97</title>
<image xlink:href="Nest_Nest_Timestamp.svg" width="150px" height="30px" preserveAspectRatio="xMinYMin meet" x="926" y="-1314"/>
</g>
<!-- struct_Elems_956c1bf96b -->
<g id="node43" class="node"><title>struct_Elems_956c1bf96b</title>
<image xlink:href="Nest_Nest_Day_of_Lay.svg" width="150px" height="30px" preserveAspectRatio="xMinYMin meet" x="926" y="-1260"/>
</g>
<!-- struct_Elems_46ca682243 -->
<g id="node44" class="node"><title>struct_Elems_46ca682243</title>
<image xlink:href="Nest_Nest_Compute_Estimated_Day_of_Hatching.svg" width="150px" height="30px" preserveAspectRatio="xMinYMin meet" x="926" y="-1206"/>
</g>
<!-- struct_Elems_ce33ba8171 -->
<g id="node45" class="node"><title>struct_Elems_ce33ba8171</title>
<image xlink:href="Nest_Nest_Estimated_Day_of_Hatching.svg" width="150px" height="30px" preserveAspectRatio="xMinYMin meet" x="926" y="-1152"/>
</g>
<!-- struct_Elems_638f275bed -->
<g id="node46" class="node"><title>struct_Elems_638f275bed</title>
<image xlink:href="Nest_Nest_Nest_Completed.svg" width="150px" height="30px" preserveAspectRatio="xMinYMin meet" x="926" y="-1098"/>
</g>
<!-- struct_Elems_b6de9c66ed -->
<g id="node47" class="node"><title>struct_Elems_b6de9c66ed</title>
<image xlink:href="Nest_Nest_Nest_Completed_at.svg" width="150px" height="30px" preserveAspectRatio="xMinYMin meet" x="926" y="-1044"/>
</g>
<!-- struct_Elems_a617e3347d -->
<g id="node48" class="node"><title>struct_Elems_a617e3347d</title>
<image xlink:href="Nest_Nest_Add_Nest_Measurement.svg" width="150px" height="30px" preserveAspectRatio="xMinYMin meet" x="926" y="-990"/>
</g>
<!-- struct_Elems_fb449f5e2d -->
<g id="node49" class="node"><title>struct_Elems_fb449f5e2d</title>
<image xlink:href="Nest_Nest_Nest_Measurements.svg" width="150px" height="30px" preserveAspectRatio="xMinYMin meet" x="926" y="-936"/>
</g>
<!-- struct_Elems_da6151257f -->
<g id="node50" class="node"><title>struct_Elems_da6151257f</title>
<image xlink:href="Nest_Nest_Add_New_Egg.svg" width="150px" height="30px" preserveAspectRatio="xMinYMin meet" x="926" y="-882"/>
</g>
<!-- struct_Elems_1201ba816a -->
<g id="node51" class="node"><title>struct_Elems_1201ba816a</title>
<image xlink:href="Nest_Nest_Existing_Eggs.svg" width="150px" height="30px" preserveAspectRatio="xMinYMin meet" x="926" y="-828"/>
</g>
<!-- struct_Elems_477cae012e -->
<g id="node52" class="node"><title>struct_Elems_477cae012e</title>
<image xlink:href="Nest_Nest_Add_New_Chick.svg" width="150px" height="30px" preserveAspectRatio="xMinYMin meet" x="926" y="-774"/>
</g>
<!-- struct_Elems_148ffbae0f -->
<g id="node53" class="node"><title>struct_Elems_148ffbae0f</title>
<image xlink:href="Nest_Nest_Existing_Chicks.svg" width="150px" height="30px" preserveAspectRatio="xMinYMin meet" x="926" y="-720"/>
</g>
<!-- _59f21c6987 -->
<g id="node54" class="node"><title>_59f21c6987</title>
</g>
<!-- struct_Label_26c06e4177 -->
<g id="node55" class="node"><title>struct_Label_26c06e4177</title>
<polyline fill="none" stroke="black" stroke-width="3" points="1228.5,-1556.5 1321.5,-1556.5 "/>
<text text-anchor="start" x="1261" y="-1579.4" font-family="Roboto" font-size="12.00">Nest</text>
<text text-anchor="start" x="1235" y="-1566.4" font-family="Roboto" font-size="12.00">Measurement</text>
<polygon fill="none" stroke="black" points="1226,-1554 1226,-1598 1376,-1598 1376,-1554 1226,-1554"/>
</g>
<!-- struct_Elems_5b639af30f -->
<g id="node56" class="node"><title>struct_Elems_5b639af30f</title>
<image xlink:href="Nest_Measurement_Nest_Measurement_Nest_Measurement_Nest_ID.svg" width="150px" height="30px" preserveAspectRatio="xMinYMin meet" x="1226" y="-1533"/>
</g>
<!-- struct_Elems_6baf1a5e13 -->
<g id="node57" class="node"><title>struct_Elems_6baf1a5e13</title>
<image xlink:href="Nest_Measurement_Nest_Measurement_Timestamp.svg" width="150px" height="30px" preserveAspectRatio="xMinYMin meet" x="1226" y="-1479"/>
</g>
<!-- struct_Elems_5e33cf74a6 -->
<g id="node58" class="node"><title>struct_Elems_5e33cf74a6</title>
<image xlink:href="Nest_Measurement_Nest_Measurement_Egg_Count.svg" width="150px" height="30px" preserveAspectRatio="xMinYMin meet" x="1226" y="-1425"/>
</g>
<!-- struct_Elems_acd49d1c36 -->
<g id="node59" class="node"><title>struct_Elems_acd49d1c36</title>
<image xlink:href="Nest_Measurement_Nest_Measurement_Nest_Status.svg" width="150px" height="30px" preserveAspectRatio="xMinYMin meet" x="1226" y="-1371"/>
</g>
<!-- struct_Elems_fc69956f17 -->
<g id="node60" class="node"><title>struct_Elems_fc69956f17</title>
<image xlink:href="Nest_Measurement_Nest_Measurement_Hatched_Chick_Count_Live.svg" width="150px" height="30px" preserveAspectRatio="xMinYMin meet" x="1226" y="-1317"/>
</g>
<!-- struct_Elems_c6b0f2e8dd -->
<g id="node61" class="node"><title>struct_Elems_c6b0f2e8dd</title>
<image xlink:href="Nest_Measurement_Nest_Measurement_Hatched_Chick_Count_Dead.svg" width="150px" height="30px" preserveAspectRatio="xMinYMin meet" x="1226" y="-1263"/>
</g>
<!-- _37c50c935c -->
<g id="node62" class="node"><title>_37c50c935c</title>
</g>
<!-- struct_Label_93be3e8de9 -->
<g id="node63" class="node"><title>struct_Label_93be3e8de9</title>
<polyline fill="none" stroke="black" stroke-width="3" points="1228.5,-1123.5 1264.5,-1123.5 "/>
<text text-anchor="start" x="1235" y="-1133.4" font-family="Roboto" font-size="12.00">Egg</text>
<polygon fill="none" stroke="black" points="1226,-1121.5 1226,-1152.5 1376,-1152.5 1376,-1121.5 1226,-1121.5"/>
</g>
<!-- struct_Elems_662ddfb4bb -->
<g id="node64" class="node"><title>struct_Elems_662ddfb4bb</title>
<image xlink:href="Egg_Egg_Egg_Box_ID.svg" width="150px" height="30px" preserveAspectRatio="xMinYMin meet" x="1226" y="-1098"/>
</g>
<!-- struct_Elems_e4cca6e6bd -->
<g id="node65" class="node"><title>struct_Elems_e4cca6e6bd</title>
<image xlink:href="Egg_Egg_Egg_Location_Name.svg" width="150px" height="30px" preserveAspectRatio="xMinYMin meet" x="1226" y="-1044"/>
</g>
<!-- struct_Elems_4088b2e91f -->
<g id="node66" class="node"><title>struct_Elems_4088b2e91f</title>
<image xlink:href="Egg_Egg_Egg_Nest_ID.svg" width="150px" height="30px" preserveAspectRatio="xMinYMin meet" x="1226" y="-990"/>
</g>
<!-- struct_Elems_ea760d37e2 -->
<g id="node67" class="node"><title>struct_Elems_ea760d37e2</title>
<image xlink:href="Egg_Egg_Egg_ID.svg" width="150px" height="30px" preserveAspectRatio="xMinYMin meet" x="1226" y="-936"/>
</g>
<!-- struct_Elems_3b8b1c6667 -->
<g id="node68" class="node"><title>struct_Elems_3b8b1c6667</title>
<image xlink:href="Egg_Egg_Timestamp.svg" width="150px" height="30px" preserveAspectRatio="xMinYMin meet" x="1226" y="-882"/>
</g>
<!-- struct_Elems_25f82fc44c -->
<g id="node69" class="node"><title>struct_Elems_25f82fc44c</title>
<image xlink:href="Egg_Egg_Egg_Length_mm.svg" width="150px" height="30px" preserveAspectRatio="xMinYMin meet" x="1226" y="-828"/>
</g>
<!-- struct_Elems_732a803b74 -->
<g id="node70" class="node"><title>struct_Elems_732a803b74</title>
<image xlink:href="Egg_Egg_Egg_Width_mm.svg" width="150px" height="30px" preserveAspectRatio="xMinYMin meet" x="1226" y="-774"/>
</g>
<!-- struct_Elems_5c07e26b89 -->
<g id="node71" class="node"><title>struct_Elems_5c07e26b89</title>
<image xlink:href="Egg_Egg_Egg_Weight_g.svg" width="150px" height="30px" preserveAspectRatio="xMinYMin meet" x="1226" y="-720"/>
</g>
<!-- _556903d5e9 -->
<g id="node72" class="node"><title>_556903d5e9</title>
</g>
<!-- struct_Label_4332e9fcd4 -->
<g id="node73" class="node"><title>struct_Label_4332e9fcd4</title>
<polyline fill="none" stroke="black" stroke-width="3" points="1228.5,-580.5 1273.5,-580.5 "/>
<text text-anchor="start" x="1235" y="-590.4" font-family="Roboto" font-size="12.00">Chick</text>
<polygon fill="none" stroke="black" points="1226,-578.5 1226,-609.5 1376,-609.5 1376,-578.5 1226,-578.5"/>
</g>
<!-- struct_Elems_52a4f14925 -->
<g id="node74" class="node"><title>struct_Elems_52a4f14925</title>
<image xlink:href="Chick_Chick_Chick_Box_ID.svg" width="150px" height="30px" preserveAspectRatio="xMinYMin meet" x="1226" y="-555"/>
</g>
<!-- struct_Elems_799d933350 -->
<g id="node75" class="node"><title>struct_Elems_799d933350</title>
<image xlink:href="Chick_Chick_Chick_Location_Name.svg" width="150px" height="30px" preserveAspectRatio="xMinYMin meet" x="1226" y="-501"/>
</g>
<!-- struct_Elems_20375d9a24 -->
<g id="node76" class="node"><title>struct_Elems_20375d9a24</title>
<image xlink:href="Chick_Chick_Chick_Nest_ID.svg" width="150px" height="30px" preserveAspectRatio="xMinYMin meet" x="1226" y="-447"/>
</g>
<!-- struct_Elems_146c947d6c -->
<g id="node77" class="node"><title>struct_Elems_146c947d6c</title>
<image xlink:href="Chick_Chick_Chick_Chick_ID.svg" width="150px" height="30px" preserveAspectRatio="xMinYMin meet" x="1226" y="-393"/>
</g>
<!-- struct_Elems_ae074da9ec -->
<g id="node78" class="node"><title>struct_Elems_ae074da9ec</title>
<image xlink:href="Chick_Chick_Timestamp.svg" width="150px" height="30px" preserveAspectRatio="xMinYMin meet" x="1226" y="-339"/>
</g>
<!-- struct_Elems_27a1f47d8f -->
<g id="node79" class="node"><title>struct_Elems_27a1f47d8f</title>
<image xlink:href="Chick_Chick_Bird_Species.svg" width="150px" height="30px" preserveAspectRatio="xMinYMin meet" x="1226" y="-285"/>
</g>
<!-- struct_Elems_0008f42f5a -->
<g id="node80" class="node"><title>struct_Elems_0008f42f5a</title>
<image xlink:href="Chick_Chick_Band_Number.svg" width="150px" height="30px" preserveAspectRatio="xMinYMin meet" x="1226" y="-231"/>
</g>
<!-- struct_Elems_6278eb1bfe -->
<g id="node81" class="node"><title>struct_Elems_6278eb1bfe</title>
<image xlink:href="Chick_Chick_Notes.svg" width="150px" height="30px" preserveAspectRatio="xMinYMin meet" x="1226" y="-177"/>
</g>
<!-- struct_Elems_4a27fcd4a1 -->
<g id="node82" class="node"><title>struct_Elems_4a27fcd4a1</title>
<image xlink:href="Chick_Chick_Add_Chick_Measurement.svg" width="150px" height="30px" preserveAspectRatio="xMinYMin meet" x="1226" y="-123"/>
</g>
<!-- struct_Elems_f9bb85eada -->
<g id="node83" class="node"><title>struct_Elems_f9bb85eada</title>
<image xlink:href="Chick_Chick_Existing_Chick_Measurements.svg" width="150px" height="30px" preserveAspectRatio="xMinYMin meet" x="1226" y="-69"/>
</g>
<!-- _b28b9160d5 -->
<g id="node84" class="node"><title>_b28b9160d5</title>
</g>
<!-- struct_Label_ef24d48e81 -->
<g id="node85" class="node"><title>struct_Label_ef24d48e81</title>
<polyline fill="none" stroke="black" stroke-width="3" points="1526.5,-694.5 1619.5,-694.5 "/>
<text text-anchor="start" x="1557" y="-717.4" font-family="Roboto" font-size="12.00">Chick</text>
<text text-anchor="start" x="1533" y="-704.4" font-family="Roboto" font-size="12.00">Measurement</text>
<polygon fill="none" stroke="black" points="1524,-692 1524,-736 1674,-736 1674,-692 1524,-692"/>
</g>
<!-- struct_Elems_84bb13b530 -->
<g id="node86" class="node"><title>struct_Elems_84bb13b530</title>
<image xlink:href="Chick_Measurement_Chick_Measurement_Chick_Measurement_Chick_ID.svg" width="150px" height="30px" preserveAspectRatio="xMinYMin meet" x="1524" y="-671"/>
</g>
<!-- struct_Elems_6d194d8174 -->
<g id="node87" class="node"><title>struct_Elems_6d194d8174</title>
<image xlink:href="Chick_Measurement_Chick_Measurement_Timestamp.svg" width="150px" height="30px" preserveAspectRatio="xMinYMin meet" x="1524" y="-617"/>
</g>
<!-- struct_Elems_bab8d01927 -->
<g id="node88" class="node"><title>struct_Elems_bab8d01927</title>
<image xlink:href="Chick_Measurement_Chick_Measurement_Chick_Alive.svg" width="150px" height="30px" preserveAspectRatio="xMinYMin meet" x="1524" y="-563"/>
</g>
<!-- struct_Elems_245ff90d1d -->
<g id="node89" class="node"><title>struct_Elems_245ff90d1d</title>
<image xlink:href="Chick_Measurement_Chick_Measurement_Chick_Age_days.svg" width="150px" height="30px" preserveAspectRatio="xMinYMin meet" x="1524" y="-509"/>
</g>
<!-- struct_Elems_058662bc04 -->
<g id="node90" class="node"><title>struct_Elems_058662bc04</title>
<image xlink:href="Chick_Measurement_Chick_Measurement_Weight_g.svg" width="150px" height="30px" preserveAspectRatio="xMinYMin meet" x="1524" y="-455"/>
</g>
<!-- struct_Elems_ebe4645382 -->
<g id="node91" class="node"><title>struct_Elems_ebe4645382</title>
<image xlink:href="Chick_Measurement_Chick_Measurement_Head_Length_mm.svg" width="150px" height="30px" preserveAspectRatio="xMinYMin meet" x="1524" y="-401"/>
</g>
<!-- struct_Elems_40c1f8f906 -->
<g id="node92" class="node"><title>struct_Elems_40c1f8f906</title>
<image xlink:href="Chick_Measurement_Chick_Measurement_Wing_Length_mm.svg" width="150px" height="30px" preserveAspectRatio="xMinYMin meet" x="1524" y="-347"/>
</g>
<!-- struct_Elems_e04bf3e15a -->
<g id="node93" class="node"><title>struct_Elems_e04bf3e15a</title>
<image xlink:href="Chick_Measurement_Chick_Measurement_Tarsus_Length_mm.svg" width="150px" height="30px" preserveAspectRatio="xMinYMin meet" x="1524" y="-293"/>
</g>
<!-- struct_Elems_f39329db37 -->
<g id="node94" class="node"><title>struct_Elems_f39329db37</title>
<image xlink:href="Chick_Measurement_Chick_Measurement_Notes.svg" width="150px" height="30px" preserveAspectRatio="xMinYMin meet" x="1524" y="-239"/>
</g>
<!-- struct_Elems_c9ccf794e4 -->
<g id="node95" class="node"><title>struct_Elems_c9ccf794e4</title>
<image xlink:href="Chick_Measurement_Chick_Measurement_Picture.svg" width="150px" height="93px" preserveAspectRatio="xMinYMin meet" x="1524" y="-185"/>
</g>
<!-- struct_Elems_3b7e389036 -->
<g id="node96" class="node"><title>struct_Elems_3b7e389036</title>
<image xlink:href="Chick_Measurement_Chick_Measurement_Button_Picture.svg" width="150px" height="30px" preserveAspectRatio="xMinYMin meet" x="1524" y="-69"/>
</g>
<!-- _9d6322c1f4&#45;&gt;_32d7e82082 -->
<!-- struct_Elems_da5a5d8e0c&#45;&gt;struct_Label_3484e0557d -->
<g id="edge12" class="edge"><title>struct_Elems_da5a5d8e0c:_da5a5d8e0c&#45;&gt;struct_Label_3484e0557d</title>
<path fill="none" stroke="black" d="M178.119,-2098C214.476,-2098 250,-2098 250,-2098 250,-2098 250,-2256 250,-2256 250,-2256 313.627,-2256 313.627,-2256"/>
<polygon fill="black" stroke="black" points="313.627,-2259.5 323.627,-2256 313.627,-2252.5 313.627,-2259.5"/>
</g>
<!-- _32d7e82082&#45;&gt;_512fd3c604 -->
<!-- struct_Label_3484e0557d&#45;&gt;struct_Label_ccb596a252 -->
<g id="edge1" class="edge"><title>struct_Label_3484e0557d&#45;&gt;struct_Label_ccb596a252</title>
<path fill="none" stroke="black" d="M474.315,-2256C474.315,-2256 613.914,-2256 613.914,-2256"/>
<polygon fill="black" stroke="black" points="613.914,-2259.5 623.914,-2256 613.914,-2252.5 613.914,-2259.5"/>
</g>
<!-- struct_Elems_1022bcdc5e&#45;&gt;struct_Label_156e7339c3 -->
<g id="edge13" class="edge"><title>struct_Elems_1022bcdc5e:_1022bcdc5e&#45;&gt;struct_Label_156e7339c3</title>
<path fill="none" stroke="black" d="M476.119,-2202C512.476,-2202 548,-2202 548,-2202 548,-2202 548,-1937 548,-1937 548,-1937 613.942,-1937 613.942,-1937"/>
<polygon fill="black" stroke="black" points="613.942,-1940.5 623.942,-1937 613.942,-1933.5 613.942,-1940.5"/>
</g>
<!-- struct_Label_ccb596a252&#45;&gt;struct_Label_b5348d5536 -->
<g id="edge2" class="edge"><title>struct_Label_ccb596a252&#45;&gt;struct_Label_b5348d5536</title>
<path fill="none" stroke="black" d="M774.04,-2256C774.04,-2256 915.823,-2256 915.823,-2256"/>
<polygon fill="black" stroke="black" points="915.823,-2259.5 925.823,-2256 915.823,-2252.5 915.823,-2259.5"/>
</g>
<!-- struct_Label_b5348d5536&#45;&gt;struct_Label_80b9b652c9 -->
<g id="edge3" class="edge"><title>struct_Label_b5348d5536&#45;&gt;struct_Label_80b9b652c9</title>
<path fill="none" stroke="black" d="M1076.32,-2256C1076.32,-2256 1215.91,-2256 1215.91,-2256"/>
<polygon fill="black" stroke="black" points="1215.91,-2259.5 1225.91,-2256 1215.91,-2252.5 1215.91,-2259.5"/>
</g>
<!-- _512fd3c604&#45;&gt;_3333dd4418 -->
<!-- _512fd3c604&#45;&gt;_e5716be7dc -->
<!-- struct_Elems_8f67367d25&#45;&gt;struct_Label_736a0d8925 -->
<g id="edge14" class="edge"><title>struct_Elems_8f67367d25:_8f67367d25&#45;&gt;struct_Label_736a0d8925</title>
<path fill="none" stroke="black" d="M776.308,-1486.5C807.384,-1486.5 836,-1486.5 836,-1486.5 836,-1486.5 836,-1781.5 836,-1781.5 836,-1781.5 915.743,-1781.5 915.743,-1781.5"/>
<polygon fill="black" stroke="black" points="915.743,-1785 925.743,-1781.5 915.743,-1778 915.743,-1785"/>
</g>
<!-- struct_Elems_0be7f586a5&#45;&gt;struct_Label_5c5e00c7ef -->
<g id="edge15" class="edge"><title>struct_Elems_0be7f586a5:_0be7f586a5&#45;&gt;struct_Label_5c5e00c7ef</title>
<path fill="none" stroke="black" d="M776.069,-1378.5C830.575,-1378.5 894,-1378.5 894,-1378.5 894,-1378.5 894,-1503 894,-1503 894,-1503 915.814,-1503 915.814,-1503"/>
<polygon fill="black" stroke="black" points="915.814,-1506.5 925.814,-1503 915.814,-1499.5 915.814,-1506.5"/>
</g>
<!-- _e5716be7dc&#45;&gt;_59f21c6987 -->
<!-- _e5716be7dc&#45;&gt;_37c50c935c -->
<!-- _e5716be7dc&#45;&gt;_556903d5e9 -->
<!-- struct_Elems_a617e3347d&#45;&gt;struct_Label_26c06e4177 -->
<g id="edge16" class="edge"><title>struct_Elems_a617e3347d:_a617e3347d&#45;&gt;struct_Label_26c06e4177</title>
<path fill="none" stroke="black" d="M1078.03,-975C1098.97,-975 1116,-975 1116,-975 1116,-975 1116,-1558.5 1116,-1558.5 1116,-1558.5 1215.75,-1558.5 1215.75,-1558.5"/>
<polygon fill="black" stroke="black" points="1215.75,-1562 1225.75,-1558.5 1215.75,-1555 1215.75,-1562"/>
</g>
<!-- struct_Elems_da6151257f&#45;&gt;struct_Label_93be3e8de9 -->
<g id="edge17" class="edge"><title>struct_Elems_da6151257f:_da6151257f&#45;&gt;struct_Label_93be3e8de9</title>
<path fill="none" stroke="black" d="M1078.27,-867C1115.42,-867 1152,-867 1152,-867 1152,-867 1152,-1137 1152,-1137 1152,-1137 1215.63,-1137 1215.63,-1137"/>
<polygon fill="black" stroke="black" points="1215.63,-1140.5 1225.63,-1137 1215.63,-1133.5 1215.63,-1140.5"/>
</g>
<!-- struct_Elems_477cae012e&#45;&gt;struct_Label_4332e9fcd4 -->
<g id="edge18" class="edge"><title>struct_Elems_477cae012e:_477cae012e&#45;&gt;struct_Label_4332e9fcd4</title>
<path fill="none" stroke="black" d="M1078.14,-759C1129.65,-759 1188,-759 1188,-759 1188,-759 1188,-594 1188,-594 1188,-594 1215.94,-594 1215.94,-594"/>
<polygon fill="black" stroke="black" points="1215.94,-597.5 1225.94,-594 1215.94,-590.5 1215.94,-597.5"/>
</g>
<!-- _556903d5e9&#45;&gt;_b28b9160d5 -->
<!-- struct_Elems_4a27fcd4a1&#45;&gt;struct_Label_ef24d48e81 -->
<g id="edge19" class="edge"><title>struct_Elems_4a27fcd4a1:_4a27fcd4a1&#45;&gt;struct_Label_ef24d48e81</title>
<path fill="none" stroke="black" d="M1378.12,-108.25C1414.48,-108.25 1450,-108.25 1450,-108.25 1450,-108.25 1450,-707.5 1450,-707.5 1450,-707.5 1513.63,-707.5 1513.63,-707.5"/>
<polygon fill="black" stroke="black" points="1513.63,-711 1523.63,-707.5 1513.63,-704 1513.63,-711"/>
</g>
</g>
</svg>
